<?xml version="1.0" standalone="no"?>
<!DOCTYPE svg PUBLIC "-//W3C//DTD SVG 20010904//EN"
 "http://www.w3.org/TR/2001/REC-SVG-20010904/DTD/svg10.dtd">
<svg version="1.0" xmlns="http://www.w3.org/2000/svg"
 width="300.000000pt" height="300.000000pt" viewBox="0 0 300.000000 300.000000"
 preserveAspectRatio="xMidYMid meet">

<g transform="translate(0.000000,300.000000) scale(0.100000,-0.100000)"
fill="#000000" stroke="none">
<path d="M1468 2223 l-3 -297 -120 288 c-106 255 -134 310 -150 294 -2 -2 -31
-168 -64 -368 -34 -201 -63 -377 -66 -392 -4 -25 -2 -28 23 -28 l28 0 39 258
c63 422 61 411 72 382 6 -14 59 -142 118 -284 59 -143 109 -265 112 -272 4
-11 -16 -14 -101 -14 l-106 0 0 155 0 155 -25 0 -25 0 0 -355 0 -355 25 0 c25
0 25 1 25 85 l0 85 110 0 110 0 0 -365 0 -365 25 0 25 0 0 365 0 365 110 0
110 0 0 -85 0 -85 30 0 30 0 0 355 0 355 -30 0 -30 0 0 -155 0 -155 -110 0
-109 0 45 98 c25 53 87 186 137 295 80 174 93 195 98 170 4 -15 26 -164 50
-330 l42 -303 29 0 c27 0 29 3 24 28 -3 15 -28 178 -56 362 -64 431 -58 402
-76 398 -9 -2 -70 -120 -147 -285 -73 -155 -135 -285 -139 -289 -5 -4 -8 126
-8 289 l0 297 -25 0 -25 0 -2 -297z m272 -543 l0 -70 -245 0 -245 0 0 63 c0
35 3 67 7 70 3 4 114 7 245 7 l238 0 0 -70z"/>
</g>
</svg>
